<?xml version="1.0" encoding="utf-8"?>
<!-- Generator: Adobe Illustrator 19.1.0, SVG Export Plug-In . SVG Version: 6.00 Build 0)  -->
<svg version="1.1" id="Layer_1" xmlns="http://www.w3.org/2000/svg" xmlns:xlink="http://www.w3.org/1999/xlink" x="0px" y="0px"
	 viewBox="2 -2 24 24" style="enable-background:new 2 -2 24 24;" xml:space="preserve">
<style type="text/css">
	.st0{fill:none;stroke:#000000;stroke-width:2;stroke-miterlimit:10;}
</style>
<g>
	<circle class="st0" cx="18" cy="6" r="7.5"/>
	<path class="st0" d="M17.5,9v1 M17.5,2v1 M16,7.5C16,8.3,16.7,9,17.5,9S19,8.3,19,7.5C19,6.7,18.3,6,17.5,6S16,5.3,16,4.5
		C16,3.7,16.7,3,17.5,3S19,3.7,19,4.5 M9.5,17v1 M9.5,10v1 M8,15.5C8,16.3,8.7,17,9.5,17s1.5-0.7,1.5-1.5c0-0.8-0.7-1.5-1.5-1.5
		S8,13.3,8,12.5C8,11.7,8.7,11,9.5,11s1.5,0.7,1.5,1.5 M10.5,6.5l-0.5,0c-4.1,0-7.5,3.4-7.5,7.5s3.4,7.5,7.5,7.5
		c4.1,0,7.5-3.4,7.5-7.5l0-0.5"/>
</g>
</svg>
