<?xml version="1.0" encoding="utf-8"?>
<!-- Generator: Adobe Illustrator 19.1.0, SVG Export Plug-In . SVG Version: 6.00 Build 0)  -->
<svg version="1.1" id="Layer_1" xmlns="http://www.w3.org/2000/svg" xmlns:xlink="http://www.w3.org/1999/xlink" x="0px" y="0px"
	 viewBox="0 0 23 22.5" style="enable-background:new 0 0 23 22.5;" xml:space="preserve">
<style type="text/css">
	.st0{fill:none;stroke:#000000;stroke-miterlimit:10;}
</style>
<path class="st0" d="M11.5,0C5.2,0,0,5.1,0,11.5c0,3.1,1.2,6,3.4,8.1c2.2,2.2,5.1,3.4,8.1,3.4h0C17.8,23,23,17.9,23,11.5
	C23,5.2,17.9,0,11.5,0z M11.5,22.5L11.5,22.5L11.5,22.5L11.5,22.5z M16.1,15.4c0.2,0.2,0.2,0.5,0,0.7c-0.1,0.1-0.2,0.1-0.4,0.1
	c-0.1,0-0.3,0-0.4-0.1l-3.9-3.9l-3.9,3.9c-0.1,0.1-0.2,0.1-0.4,0.1c-0.1,0-0.3,0-0.4-0.1c-0.2-0.2-0.2-0.5,0-0.7l3.9-3.9L6.9,7.6
	c-0.2-0.2-0.2-0.5,0-0.7c0.2-0.2,0.5-0.2,0.7,0l3.9,3.9l3.9-3.9c0.2-0.2,0.5-0.2,0.7,0c0.2,0.2,0.2,0.5,0,0.7l-3.9,3.9L16.1,15.4z"
	/>
</svg>
