<?xml version="1.0" standalone="no"?>
<!DOCTYPE svg PUBLIC "-//W3C//DTD SVG 1.1//EN" "http://www.w3.org/Graphics/SVG/1.1/DTD/svg11.dtd">
<svg xmlns="http://www.w3.org/2000/svg">
<metadata>Copyright (C) 2016 by original authors @ fontello.com</metadata>
<defs>
<font id="fontello" horiz-adv-x="1000" >
<font-face font-family="fontello" font-weight="400" font-stretch="normal" units-per-em="1000" ascent="850" descent="-150" />
<missing-glyph horiz-adv-x="1000" />
<glyph glyph-name="user" unicode="&#xe800;" d="M736 128q204-72 204-122l0-106-940 0 0 106q0 50 204 122 94 34 128 69t34 95q0 22-22 49t-32 73q-2 12-9 18t-14 8-14 17-9 43q0 16 5 26t9 12l4 4q-8 50-12 88-4 54 41 112t157 58 158-58 40-112l-12-88q18-8 18-42-2-28-9-43t-14-17-14-8-9-18q-8-48-31-74t-23-48q0-60 35-95t127-69z" horiz-adv-x="940" />

<glyph glyph-name="inbox" unicode="&#xe801;" d="M0 184v191q0 27 19 51l103 135q24 33 64 33h742q39 0 63-33l103-135q19-24 19-51v-191q0-32-23-55t-55-23h-957q-32 0-55 23t-23 55z m126 197q7-13 28-13h211q0-32 22-55t55-23h229q32 0 55 23t23 55h210q21 0 28 13t-4 29l-55 90q-11 18-34 30t-42 13h-590q-21 0-43-13t-33-30l-56-90q-11-17-4-29z" horiz-adv-x="1113.8" />

<glyph glyph-name="down-open" unicode="&#xe802;" d="M0 526l148 148 352-351 352 351 148-148-352-352-148-148-148 148z" horiz-adv-x="1000" />

<glyph glyph-name="error" unicode="&#xe803;" d="M1111 565c-38 66-90 118-156 156-66 38-137 58-215 58-78 0-150-20-215-58-66-38-118-90-156-156-39-65-58-137-58-215 0-78 19-149 58-215 38-66 90-118 156-156 65-38 137-58 215-58 78 0 149 20 215 58 66 38 118 90 156 156 38 66 57 137 57 215 0 78-19 150-57 215z m-300-482c0-5-1-10-5-13s-7-6-12-6h-107c-5 0-9 2-13 6-4 4-6 8-6 13v106c0 5 2 9 6 13 4 3 8 5 13 5h107c5 0 9-2 12-5 4-4 5-8 5-13v-106z m-1 192c0-4-2-7-6-10-3-3-8-4-13-4h-103c-5 0-10 1-14 4-3 3-5 6-5 10l-10 346c0 5 2 8 6 10 4 3 8 5 13 5h123c5 0 10-2 14-5 3-2 5-5 5-10l-10-346z" horiz-adv-x="1479" />

<glyph glyph-name="search" unicode="&#xe804;" d="M643 386q0 103-74 176t-176 74-177-74-73-176 73-177 177-73 176 73 74 177z m286-465q0-29-22-50t-50-21q-30 0-50 21l-191 191q-100-69-223-69-80 0-153 31t-125 84-84 125-31 153 31 152 84 126 125 84 153 31 152-31 126-84 84-126 31-152q0-123-69-223l191-191q21-21 21-51z" horiz-adv-x="928.6" />

<glyph glyph-name="mail" unicode="&#xe805;" d="M929 11v428q-18-20-39-37-149-114-238-188-28-24-46-38t-48-27-57-13h-2q-26 0-57 13t-48 27-46 38q-88 74-238 188-21 17-39 37v-428q0-8 6-13t12-5h822q7 0 12 5t6 13z m0 586v14t-1 7-1 7-3 5-5 4-8 2h-822q-7 0-12-6t-6-12q0-94 82-159 108-84 224-177 4-2 20-16t25-21 25-17 28-16 24-5h2q11 0 24 5t28 16 25 17 25 21 20 16q116 93 224 177 30 24 56 65t26 73z m71 21v-607q0-37-26-63t-63-27h-822q-36 0-63 27t-26 63v607q0 37 26 63t63 26h822q37 0 63-26t26-63z" horiz-adv-x="1000" />

<glyph glyph-name="flag-empty" unicode="&#xe806;" d="M929 267v344q-95-51-171-51-46 0-81 18-56 27-103 42t-99 16q-97 0-225-71v-334q137 63 242 63 30 0 57-5t55-14 43-17 46-22l16-8q24-12 56-12 67 0 164 51z m-750 440q0-19-10-36t-26-25v-707q0-8-5-13t-13-5h-36q-7 0-13 5t-5 13v707q-16 9-25 25t-10 36q0 30 21 51t50 21 51-21 21-51z m821-36v-425q0-22-20-32-5-3-9-5-122-65-206-65-49 0-88 20l-16 7q-35 19-55 27t-51 16-63 8q-57 0-132-24t-127-57q-9-5-19-5-9 0-18 4-17 11-17 31v414q0 20 17 31 19 12 44 24t63 29 85 28 87 10q62 0 117-17t116-48q21-11 50-11 68 0 173 63 12 6 17 9 17 9 35-1 17-11 17-31z" horiz-adv-x="1000" />

<glyph glyph-name="upload" unicode="&#xe807;" d="M0 84v73q0 33 24 56t57 24 56-24 24-56v-73q0-17 12-29t30-13h531q18 0 30 13t12 29v73q0 33 24 56t56 24 57-24 24-56v-73q0-84-59-143t-144-60h-531q-84 0-143 59t-60 144z m155 407q0 33 24 57l247 247q23 23 57 23 33 0 56-23l243-242q23-24 23-57t-23-57q-24-23-57-23t-57 23l-105 105v-344q0-33-24-57t-56-24q-33 0-57 24t-24 57v344l-110-110q-24-23-57-23t-56 23-24 57z" horiz-adv-x="937.5" />

<glyph glyph-name="info" unicode="&#xe808;" d="M1111 565c-38 66-90 118-156 156-66 38-137 58-215 58-78 0-150-20-215-58-66-38-118-90-156-156-39-65-58-137-58-215 0-78 19-149 58-215 38-66 90-118 156-156 65-38 137-58 215-58 78 0 149 20 215 58 66 38 118 90 156 156 38 66 57 137 57 215 0 78-19 150-57 215z m-443 106c0 6 2 10 5 13 4 4 8 5 13 5h107c6 0 10-1 13-5 4-3 5-7 5-13v-89c0-5-1-9-5-13-3-3-7-5-13-5h-107c-5 0-9 2-13 5-3 4-5 8-5 13v89z m215-589c0-5-2-9-5-13-4-3-8-5-13-5h-250c-5 0-10 2-13 5-3 4-5 8-5 13v89c0 6 2 10 5 13 3 4 8 5 13 5h53v179h-53c-5 0-10 2-13 5-3 3-5 8-5 13v89c0 5 2 10 5 13 3 3 8 5 13 5h178c6 0 10-2 13-5 4-3 5-8 5-13v-286h54c5 0 9-1 13-5 3-3 5-7 5-13v-89z" horiz-adv-x="1479" />

<glyph glyph-name="warning" unicode="&#xe809;" d="M1231-9l-429 786c-6 11-15 21-26 27-11 7-23 10-36 10-13 0-25-3-37-10s-19-16-26-27l-428-786c-13-23-13-47 1-70 6-11 15-20 26-26 11-6 23-9 35-9h857c13 0 25 3 36 9 11 6 19 15 26 26 14 23 14 47 1 70z m-420 56c0-5-2-10-5-13-4-4-8-5-13-5h-107c-5 0-9 1-12 5-4 3-6 8-6 13v106c0 5 2 10 6 13 3 4 7 5 12 5h107c5 0 9-1 13-5 3-3 5-8 5-13v-106z m-1 209c0-4-2-7-6-9-3-3-8-4-13-4h-103c-5 0-10 1-14 4-3 2-5 5-5 9l-10 255c0 5 2 9 6 11 5 5 9 7 13 7h123c4 0 9-2 14-7 3-2 5-6 5-10l-10-256z" horiz-adv-x="1479" />

<glyph glyph-name="minus" unicode="&#xe80a;" d="M980 467c-13 13-29 19-48 19h-864c-19 0-35-6-48-19-13-14-20-30-20-49v-136c0-19 7-35 20-48 13-14 29-20 48-20h864c19 0 35 6 48 20 13 13 20 29 20 48v136c0 19-7 35-20 49z" horiz-adv-x="1000" />

<glyph glyph-name="plus" unicode="&#xe80b;" d="M980 467c-13 13-29 19-48 19h-296v296c0 19-6 35-19 48-14 13-30 20-49 20h-136c-19 0-35-7-48-20-14-13-20-29-20-48v-296h-296c-19 0-35-6-48-19s-20-30-20-49v-136c0-19 7-35 20-48 13-14 29-20 48-20h296v-296c0-19 6-35 20-48 13-13 29-20 48-20h136c19 0 35 7 49 20 13 13 19 29 19 48v296h296c19 0 35 6 48 20 13 13 20 29 20 48v136c0 19-7 35-20 49z" horiz-adv-x="1000" />

<glyph glyph-name="account-circle-1" unicode="&#xe80c;" d="M500 850c-276 0-500-224-500-500 0-132 51-257 145-352l0 0c94-95 221-148 355-148 135 0 261 53 356 149 93 94 144 219 144 351 0 276-224 500-500 500z m337-809c-44 26-110 50-180 75-17 6-35 13-53 19v77c21 13 58 46 62 123 16 9 27 30 27 57 0 24-9 43-22 54 10 31 28 89 16 138-15 58-93 79-156 79-56 0-124-17-148-61-30 1-46-11-54-22-27-35-9-99 1-134-14-10-22-30-22-54 0-27 10-48 26-57 4-77 41-110 62-123v-77c-16-6-33-12-49-18-68-24-137-49-184-77-78 85-121 194-121 310 0 253 205 458 458 458s458-205 458-458c0-116-43-225-121-309z" horiz-adv-x="1000" />

<glyph glyph-name="inbox-text" unicode="&#xe80d;" d="M1000 164c0 1-1 3-1 4 0 1-1 3-1 4-1 0-1 1-1 1l-146 250c-3 6-10 10-18 10h-41v355c0 11-10 20-21 20h-542c-11 0-21-9-21-20v-355h-41c-8 0-15-4-18-10l-146-250c0 0 0-1-1-1 0-1 0-3-1-4 0-1-1-3-1-4 0-1 0-1 0-1v-292c0-12 9-21 21-21h958c12 0 21 9 21 21v292c0 0 0 0 0 1z m-562 436h208c11 0 21-9 21-21 0-11-10-21-21-21h-208c-12 0-21 10-21 21 0 12 9 21 21 21z m-84 83h42c11 0 21-9 21-20 0-12-10-21-21-21h-42c-11 0-21 9-21 21 0 11 10 20 21 20z m0-166h292c11 0 21-10 21-21 0-12-10-21-21-21h-292c-11 0-21 9-21 21 0 11 10 21 21 21z m0-84h292c11 0 21-9 21-20 0-12-10-21-21-21h-292c-11 0-21 9-21 21 0 11 10 20 21 20z m0-83h292c11 0 21-9 21-21 0-11-10-21-21-21h-292c-11 0-21 10-21 21 0 12 10 21 21 21z m334-167c-12 0-21-9-21-20v-42c0-35-28-63-63-63h-187c-35 0-63 28-63 63v42c0 11-9 20-21 20h-276l122 209h29v-146c0-12 10-21 21-21h542c11 0 21 9 21 21v146h29l122-209h-255z" horiz-adv-x="1000" />

<glyph glyph-name="circle-cash" unicode="&#xe80e;" d="M59 538c3-1 6-2 9-2 7 0 15 4 19 12 43 90 116 165 205 210 10 6 14 18 9 28-6 11-18 15-28 9-97-49-177-131-224-229-5-10-1-23 10-28z m338 259c97 22 201 12 292-29 3-2 6-2 9-2 8 0 15 4 19 12 4 11 0 23-11 28-99 45-212 56-319 31-11-2-18-13-15-25 2-11 13-18 25-15z m-355-447c0 31 3 62 9 92 2 11-5 22-16 24-12 3-23-4-25-16-7-32-10-66-10-100 0-76 17-150 50-218 3-7 11-12 19-12 3 0 6 1 9 3 10 5 14 17 9 27-30 63-45 130-45 200z m902 113c3-10 11-16 21-16 1 0 3 0 5 1 11 3 18 14 15 25-27 106-89 201-175 269-9 7-22 6-29-3s-5-22 4-30c78-62 135-149 159-246z m-545-560c-98 22-187 76-251 153-7 9-20 10-29 3-9-7-10-20-3-29 70-84 167-144 273-168 2 0 3 0 5 0 10 0 18 6 20 16 3 11-4 22-15 25z m387 89c-79-64-175-98-276-100-12-1-21-10-21-22 1-11 10-20 21-20 0 0 1 0 1 0 110 2 215 40 301 109 9 7 10 20 3 29s-20 11-29 4z m193 380c-11 0-21-10-21-22 0-102-32-198-94-278-7-9-5-22 4-29 4-3 8-5 13-5 6 0 12 3 16 8 68 88 103 193 103 304v2c0 12-9 20-21 20z m-458-334c23 0 42 18 42 41v33c58 18 101 72 101 136 0 79-64 144-143 144-33 0-60 27-60 60 0 33 27 60 60 60s60-27 60-60c0-23 18-42 41-42s42 19 42 42c0 64-43 118-101 136v33c0 23-19 42-42 42s-42-19-42-42v-33c-58-18-101-72-101-136 0-79 64-144 143-144 33 0 60-26 60-60 0-33-27-59-60-59s-60 26-60 59c0 23-19 42-42 42s-41-19-41-42c0-64 43-118 101-136v-33c0-23 19-41 42-41z" horiz-adv-x="1000" />

<glyph glyph-name="notepad-edit" unicode="&#xe80f;" d="M994 240l-104 104c-8 8-22 8-30 0l-312-313c-3-2-4-5-5-8 0 0 0 0-1-1l-41-146c-2-7 0-15 5-20 4-4 9-6 15-6 2 0 4 0 6 1l145 41c1 1 1 1 1 1 3 1 6 2 8 5l313 312c4 4 6 10 6 15s-2 11-6 15z m-327-298l-75 75 200 199 74-74-199-200z m-94 35l54-54-76-22 22 76z m323 194l-75 75 54 54 75-75-54-54z m-354 512v125h83v-125h83v125h84v-354c0-11 9-21 21-21s20 10 20 21v375c0 12-9 21-20 21h-792c-12 0-21-9-21-21v-833c0-12 9-21 21-21h375c11 0 21 9 21 21s-10 21-21 21h-354v791h83v-125h83v125h84v-125h83v125h83v-125h84z" horiz-adv-x="1000" />

<glyph glyph-name="book-contact-2" unicode="&#xe810;" d="M292 58h375c11 0 21 10 21 21 0 128-68 189-133 214 30 23 49 59 49 99 0 69-56 125-125 125s-125-56-125-125c0-40 20-76 49-99-65-25-132-86-132-214 0-11 9-21 21-21z m104 334c0 46 37 83 83 83s84-37 84-83-38-84-84-84-83 38-83 84z m83-125c55 0 156-36 166-167h-332c10 131 111 167 166 167z m417 416h-708c-35 0-63 28-63 63s28 62 63 62h708c11 0 21 10 21 21s-10 21-21 21h-708c-58 0-105-47-105-104 0-5 1-10 1-15 0-2-1-4-1-6v-771c0-57 47-104 105-104h708c11 0 21 9 21 21v792c0 11-10 20-21 20z m-21-791h-687c-35 0-63 28-63 62v709c17-13 39-21 63-21h687v-750z m-687 875c-12 0-21-10-21-21s9-21 21-21h666c12 0 21 9 21 21s-9 21-21 21h-666z" horiz-adv-x="1000" />

<glyph glyph-name="box-2" unicode="&#xe811;" d="M979 267h-104v521c0 11-9 20-21 20h-458c-12 0-21-9-21-20v-63h-229c-12 0-21-9-21-21v-437h-104c-12 0-21-10-21-21v-334c0-11 9-20 21-20h958c12 0 21 9 21 20v334c0 11-9 21-21 21z m-562 500h416v-500h-145c-12 0-21-10-21-21v-63h-250v584z m-250-84h208v-500h-42v63c0 11-9 21-20 21h-146v416z m791-750h-916v292h250v-62c0-12 9-21 21-21h375c11 0 20 9 20 21v62h250v-292z m-395 709h208c11 0 21 9 21 21s-10 20-21 20h-208c-12 0-21-9-21-20s9-21 21-21z m-84-84h292c11 0 21 10 21 21s-10 21-21 21h-292c-11 0-21-9-21-21s10-21 21-21z m0-83h292c11 0 21 9 21 21s-10 21-21 21h-292c-11 0-21-10-21-21s10-21 21-21z m0-83h292c11 0 21 9 21 21s-10 20-21 20h-292c-11 0-21-9-21-20s10-21 21-21z m0-84h292c11 0 21 10 21 21s-10 21-21 21h-292c-11 0-21-9-21-21s10-21 21-21z" horiz-adv-x="1000" />

<glyph glyph-name="business-man-2" unicode="&#xe812;" d="M877 151l-225 62c39 36 71 84 76 140 29 10 48 41 48 80 0 12-2 23-5 33l21 153c0 3 7 82-52 148-50 55-131 83-240 83s-190-28-240-83c-59-66-52-145-51-149l20-152c-3-10-5-21-5-33 0-39 19-70 48-80 5-57 37-104 77-140l-227-62c-73-28-122-98-122-176v-104c0-12 9-21 21-21h354 250 354c12 0 21 9 21 21v104c0 78-49 148-123 176z m-586 588c42 46 112 69 209 69 96 0 167-23 208-69 47-51 42-115 42-115l-15-114c-3 1-6 3-9 4l-18 90c-2 10-10 17-20 17-125 0-146 35-160 58-4 7-8 13-13 19-8 8-22 8-30 0-5-6-9-12-13-19-14-23-35-58-159-58-10 0-19-7-21-17l-18-90c-3-1-6-3-9-4l-15 113c0 1-6 64 41 116z m22-368c0 11-10 21-21 21-21 0-26 27-26 41s5 42 26 42c10 0 18 7 20 17l18 87c109 3 148 35 170 67 23-32 61-64 170-67l18-87c2-10 10-17 20-17 21 0 26-27 26-42s-5-41-26-41c-11 0-20-10-20-21 0-108-132-188-188-188s-187 80-187 188z m187-292c-23 0-42 19-42 42v28c16-5 31-7 42-7s26 2 42 7v-28c0-23-19-42-42-42z m-458-104c0 61 38 115 93 136l256 70c9-5 17-10 26-14v-46c0-34 20-63 49-76l-102-153h-322v83z m372-83l86 129 86-129h-172z m544 0h-322l-102 153c29 13 49 42 49 76v46c9 4 18 9 27 15l254-70c56-22 94-76 94-137v-83z m-562 562c4 0 10 0 15 0l6 0 5 0c5 0 12 0 16 0 0-12 9-21 20-21 12 0 21 10 21 21 0 13-3 23-11 30-12 12-29 12-46 12l-5 0-6 0c-16 0-33 0-46-12-7-7-11-17-11-30 0-11 10-20 21-20 11 0 20 9 21 20z m146-20c10 0 19 9 21 20 4 0 10 0 15 0l5 0 6 0c5 0 11 0 15 0 0-12 10-21 21-21 12 0 21 10 21 21 0 13-4 23-11 30-13 12-30 12-46 12l-6 0-5 0c-16 0-34 0-46-12-7-7-11-17-11-30 0-11 9-20 21-20z" horiz-adv-x="1000" />

<glyph glyph-name="business-man-3" unicode="&#xe813;" d="M396 454c4 0 10 0 15 0l6 0 5 0c5 0 12 0 16 0 0-12 9-21 20-21 12 0 21 10 21 21 0 13-3 23-11 30-12 12-29 12-46 12l-5 0-6 0c-16 0-33 0-46-12-7-7-11-17-11-30 0-11 10-20 21-20 11 0 20 9 21 20z m146-20c10 0 19 9 21 20 4 0 10 0 15 0l5 0 6 0c5 0 11 0 15 0 0-12 10-21 21-21 12 0 21 10 21 21 0 13-4 23-11 30-13 12-30 12-46 12l-6 0-5 0c-16 0-34 0-46-12-7-7-11-17-11-30 0-11 9-20 21-20z m156-222c-14 2-28 4-41 6 37 35 66 81 72 135 24 8 44 30 54 61 8 28 7 62-11 84l20 121c0 3 7 82-52 148-50 55-131 83-240 83s-189-28-239-83c-60-66-52-145-52-149l19-117c-1-2-2-3-4-4-8-12-12-28-12-46 0-41 23-86 60-98 5-54 35-100 72-135-13-2-25-4-38-6-150-20-306-41-306-205v-136c0-12 9-21 21-21h958c12 0 21 9 21 21v136c0 164-147 184-302 205z m38-48l45-106h-73c-7 0-14-3-17-9s-4-14-1-21l68-136h-148l72 280c3 0 7-1 10-1 15-2 29-4 44-7z m-303-272l-11 41 78 93 78-94-11-40h-134z m25 258c16-6 31-8 42-8 12 0 26 2 42 7v-28c0-23-19-42-42-42s-42 19-42 42v29z m183 28l-50-196-54 65c27 13 46 41 46 74v46c10 4 19 10 28 16 10-2 20-3 30-5z m-349 561c41 46 112 69 208 69 97 0 167-23 209-69 46-51 41-115 41-115 0 0 0 0 0 0l-10-66c-311 2-344 30-344 146 0 12-9 21-21 21s-21-9-21-21c0-52-32-164-87-184l-17 103c0 1-5 64 42 116z m21-368c0 11-9 21-21 21-22 0-39 32-39 59 0 9 2 17 6 22 1 2 3 3 7 4 54 9 90 66 110 124 42-73 150-83 357-84l-4-23c-2-9 2-17 9-21l0 0c9-6 11-27 5-46-5-16-17-35-34-35-12 0-21-10-21-21 0-108-132-188-188-188s-187 80-187 188z m104-204v-46c0-33 19-61 46-74l-53-65-51 196c11 2 21 3 31 5 9-6 18-11 27-16z m-105 4c2 0 4 1 6 1l72-280h-148l68 136c4 7 3 14-1 20s-10 10-17 10h-73l46 106c15 3 30 5 47 7z m-270-164c0 96 64 129 174 149l-48-110c-2-7-2-14 2-20 4-6 11-9 18-9h70l-62-125h-154v115z m916-115h-153l-63 125h71c7 0 13 3 17 9 4 6 4 13 2 20l-48 110c110-20 174-52 174-149v-115z" horiz-adv-x="1000" />

<glyph glyph-name="check-badge" unicode="&#xe814;" d="M694 511l-298-278-90 90c-8 8-21 8-29 0s-8-21 0-29l104-105c4-4 10-6 15-6 5 0 10 2 14 6l313 292c8 7 8 21 1 29-8 9-21 9-30 1z m306-161c0 38-20 71-51 89 22 29 27 68 13 102-14 35-45 58-81 64 9 34-1 72-27 99-26 25-65 36-100 27-5 35-28 67-63 81-34 14-73 8-102-13-18 31-52 51-89 51-37 0-71-20-89-51-29 21-68 27-102 13-35-14-58-46-63-81-35 9-74-2-100-27-26-27-36-65-27-100-36-5-67-28-81-63-14-34-9-73 13-102-31-18-51-51-51-89s20-71 51-89c-22-29-27-68-13-102 14-35 45-58 81-63-9-35 1-73 27-100 26-25 65-36 100-27 5-35 28-67 63-81 34-14 73-8 102 13 18-31 52-51 89-51 37 0 71 20 89 51 29-21 68-27 102-13 35 14 58 46 63 81 35-9 74 2 100 27 26 27 36 65 27 100 36 5 67 28 81 63 14 34 9 73-13 102 31 18 51 52 51 89z m-93-61c-8-2-15-8-16-17s2-17 9-21c25-17 35-49 24-76-12-28-42-44-71-38-8 2-17-1-22-8-5-7-4-17 0-24 17-25 14-58-7-79-21-21-55-24-79-7-7 4-17 5-24 0-7-5-10-13-9-22 7-29-9-59-37-71-27-11-60-1-76 24-4 7-13 11-21 9-9-2-15-8-17-16-5-30-31-51-61-51-30 0-56 21-61 51-2 8-8 15-17 16-1 0-2 1-4 1-7 0-13-4-17-10-16-25-49-35-76-24-28 12-44 42-38 71 2 8-1 17-8 22s-17 4-24 0c-24-17-58-14-79 7-21 21-24 55-7 79 4 7 4 17 0 24-5 7-13 10-22 8-29-6-59 10-70 38-12 27-2 59 23 76 7 4 11 13 9 21s-8 15-16 17c-30 5-51 31-51 61s21 56 51 61c8 2 15 8 16 17 2 8-2 17-9 21-25 17-35 49-23 76 11 28 41 44 70 38 8-2 17 1 22 8s4 17 0 24c-17 25-14 58 7 79 21 21 55 24 79 7 7-4 17-4 24 0 7 5 10 14 8 22-6 29 10 59 38 70 27 12 60 1 76-23 4-7 13-11 21-9 9 1 15 8 17 16 5 30 31 51 61 51 30 0 56-21 61-51 2-8 8-15 17-16 8-2 17 2 21 9 16 24 49 35 76 23 28-11 44-41 38-70-2-8 1-17 8-22 7-4 17-4 24 0 24 17 58 14 79-7 21-21 24-55 7-79-4-7-4-17 0-24 5-7 13-10 22-8 29 6 59-10 71-38 11-27 1-59-24-76-7-4-11-13-9-21 1-9 8-15 16-17 30-5 51-31 51-61s-21-56-51-61z" horiz-adv-x="1000" />

<glyph glyph-name="close" unicode="&#xe815;" d="M530 350l464 464c8 9 8 22 0 30s-21 8-29 0l-465-464-464 464c-8 8-22 8-30 0s-8-21 0-29l465-465-465-464c-8-9-8-22 0-30 4-4 10-6 15-6s11 2 15 6l464 465 464-465c5-4 10-6 15-6s11 2 15 6c8 8 8 21 0 29l-464 465z" horiz-adv-x="1000" />

<glyph glyph-name="drawer-1" unicode="&#xe816;" d="M750 850h-542c-69 0-125-56-125-125v-750c0-69 56-125 125-125h542c69 0 125 56 125 125v750c0 69-56 125-125 125z m-542-42h542c46 0 83-37 83-83v-167h-708v167c0 46 37 83 83 83z m625-291v-292h-708v292h708z m-83-625h-542c-46 0-83 37-83 83v208h708v-208c0-46-37-83-83-83z m-361 720c4-7 11-12 19-12h145c8 0 16 5 19 12l42 83c3 6 3 14-1 20-4 6-11 10-18 10h-229c-7 0-14-4-18-10-4-6-4-14-1-20l42-83z m172 71l-20-41h-121l-20 41h161z m-214-280l42-83c4-7 11-12 19-12h145c8 0 16 5 19 12l42 83c3 7 3 14-1 20-4 7-11 10-18 10h-229c-7 0-14-3-18-9-4-7-4-14-1-21z m214-11l-20-42h-121l-20 42h161z m34-334h-229c-7 0-14-3-18-9-4-7-4-14-1-21l42-83c4-7 11-12 19-12h145c8 0 16 5 19 12l42 83c3 7 3 14-1 20-4 7-11 10-18 10z m-54-83h-121l-20 42h161l-20-42z" horiz-adv-x="1000" />

<glyph glyph-name="task-warning" unicode="&#xe817;" d="M104 642c-11 0-21-10-21-21v-583c0-12 10-21 21-21h354c12 0 21 9 21 21s-9 20-21 20h-333v542h42v-21c0-11 9-21 21-21h333c11 0 21 10 21 21v21h41v-292c0-11 10-20 21-20s21 9 21 20v313c0 11-9 21-21 21h-62v41h125v-250c0-11 9-20 21-20s20 9 20 20v271c0 12-9 21-20 21h-146v21c0 11-10 21-21 21h-64c-8 43-41 83-103 83s-94-40-102-83h-64c-12 0-21-10-21-21v-21h-146c-12 0-21-9-21-21v-666c0-58 47-105 104-105h313c11 0 21 10 21 21s-10 21-21 21h-313c-34 0-62 28-62 63v645h125v-41h-63z m104 83h63c11 0 21 9 21 21 0 6 1 62 62 62s63-56 63-62c0-12 9-21 21-21h62v-125h-292v125z m230-250h-209c-11 0-21-9-21-21s10-21 21-21h209c11 0 20 10 20 21s-9 21-20 21z m0-83h-209c-11 0-21-10-21-21s10-21 21-21h209c11 0 20 9 20 21s-9 21-20 21z m20-104c0 11-9 20-20 20h-209c-11 0-21-9-21-20s10-21 21-21h209c11 0 20 9 20 21z m-229-63c-11 0-21-9-21-21s10-21 21-21h125c12 0 21 10 21 21s-9 21-21 21h-125z m767-340l-248 495c-7 14-30 14-37 0l-250-500c-4-6-3-14 0-20s11-10 18-10h500c1 0 1 0 1 0 12 0 21 9 21 21 0 5-2 10-5 14z m-483 7l216 432 217-432h-433z m195 274v-136c0-11 10-21 21-21s21 10 21 21v136c0 12-9 21-21 21s-21-9-21-21z" horiz-adv-x="1000" />

<glyph glyph-name="upload-2" unicode="&#xe818;" d="M938 133c-12 0-21-10-21-21v-80c0-54-45-99-99-99h-678c-54 0-98 45-98 99v80c0 11-10 21-21 21s-21-10-21-21v-80c0-77 63-140 140-140h678c77 0 140 63 140 140v80c0 11-9 21-20 21z m-736 390l256 256v-663c0-11 10-20 21-20s21 9 21 20v663l256-256c4-4 10-6 15-6s11 2 15 6c8 8 8 21 0 29l-292 292c-2 2-4 3-7 4-5 3-11 3-16 0-2-1-5-2-7-4l-291-292c-8-8-8-21 0-29s21-8 29 0z" horiz-adv-x="1000" />

<glyph glyph-name="headphone" unicode="&#xe819;" d="M1000 329c0 51-36 93-83 102v23c0 58-47 104-104 104h-1c-11 163-147 292-312 292s-301-129-311-292h-1c-58 0-105-46-105-104v-23c-47-9-83-51-83-102s36-92 83-102v-23c0-57 47-104 105-104h83c11 0 21 9 21 21v417c0 11-10 20-21 20h-41c11 140 128 250 270 250s259-110 270-250h-41c-11 0-21-9-21-20v-417c0-12 10-21 21-21h84v-21c0-77-68-104-125-104h-66c-9 36-42 63-80 63-46 0-84-38-84-84s38-83 84-83c38 0 71 26 80 62h66c99 0 166 59 166 146v30c37 16 63 53 63 95v23c47 10 83 52 83 102z m-958 0c0 27 17 50 41 59v-117c-24 8-41 31-41 58z m208-187h-62c-35 0-63 28-63 62v250c0 35 28 63 63 63h62v-375z m292-230c-23 0-42 19-42 42s19 42 42 42 41-19 41-42-18-42-41-42z m333 292c0-34-28-62-62-62h-63v375h63c34 0 62-28 62-63v-250z m42 67v117c24-9 41-32 41-59s-17-50-41-58z" horiz-adv-x="1000" />

<glyph glyph-name="hand-tablet" unicode="&#xe81a;" d="M896 850h-792c-57 0-104-47-104-104v-542c0-57 47-104 104-104h209c11 0 20 9 20 21s-9 21-20 21h-209c-34 0-62 28-62 62v542c0 34 28 62 62 62h792c34 0 62-28 62-62v-375c0-12 10-21 21-21s21 9 21 21v375c0 57-47 104-104 104z m-42-500c12 0 21 9 21 21v375c0 11-9 21-21 21h-666c-12 0-21-10-21-21v-542c0-11 9-21 21-21h125c11 0 20 10 20 21s-9 21-20 21h-105v500h625v-354c0-12 10-21 21-21z m108-116l-212 76v208c0 37-20 61-52 61h-60c-32 0-55-25-55-61v-327l-34 41c-11 15-30 24-50 24l-41-1c-22 0-42-12-53-30s-12-42-1-61l155-282c11-20 31-32 54-32h266c25 0 47 15 57 41l64 279c0 1 0 3 0 4 0 30-15 53-38 60z m-65-330c-3-8-10-12-18-12h-266c-7 0-14 3-17 10l-156 282c-3 6-3 14 1 20 3 6 10 9 17 9l41 1c7 0 14-3 18-8l71-86c6-6 15-9 23-6 9 3 14 11 14 20v384c0 9 2 20 13 20h60c3 0 10 0 10-20v-222c0-9 6-17 14-20l227-81c6-2 9-11 9-19l-61-272z" horiz-adv-x="1000" />

<glyph glyph-name="file-text-document" unicode="&#xe81b;" d="M915 587c-1 3-2 5-4 7l-250 250c-2 2-5 3-7 4-3 1-5 2-8 2h-542c-11 0-21-9-21-21v-958c0-12 10-21 21-21h792c11 0 21 9 21 21v708c0 3-1 6-2 8z m-248 192l179-179h-179v179z m-542-887v916h500v-229c0-11 9-21 21-21h229v-666h-750z m188 625h187c12 0 21 9 21 21s-9 20-21 20h-187c-12 0-21-9-21-20s9-21 21-21z m375-84h-375c-12 0-21-9-21-20s9-21 21-21h375c11 0 20 9 20 21s-9 20-20 20z m-250-125h-125c-12 0-21-9-21-20s9-21 21-21h125c11 0 20 9 20 21s-9 20-20 20z m0-125h-125c-12 0-21-9-21-20s9-21 21-21h125c11 0 20 9 20 21s-9 20-20 20z m0-125h-125c-12 0-21-9-21-20s9-21 21-21h125c11 0 20 9 20 21s-9 20-20 20z m250 250h-167c-12 0-21-9-21-20v-42c0-12 9-21 21-21s21 9 21 21v21h41v-209h-41c-12 0-21-9-21-20s9-21 21-21h125c11 0 21 9 21 21s-10 20-21 20h-42v209h42v-21c0-12 9-21 21-21s20 9 20 21v42c0 11-9 20-20 20z" horiz-adv-x="1000" />

<glyph glyph-name="phone-2" unicode="&#xe81c;" d="M879 725c-250 51-509 50-758 0-68-14-121-78-121-146v-83c0-58 47-104 104-104h125c58 0 104 46 104 104v43c110 10 224 10 334 0v-43c0-58 46-104 104-104h125c57 0 104 46 104 104v83c0 68-53 132-121 146z m79-229c0-34-28-63-62-63h-125c-34 0-63 29-63 63v62c0 11-8 20-18 21-63 6-126 9-190 9-64 0-127-3-189-9-11-1-19-10-19-21v-62c0-34-29-63-63-63h-125c-34 0-62 29-62 63v83c0 48 39 95 87 105 244 50 498 50 742 0 48-10 87-57 87-105v-83z m-375-105v63c0 12-9 21-20 21s-21-9-21-21v-62h-84v62c0 12-9 21-20 21s-21-9-21-21v-63c-186-11-334-165-334-353v-126c0-11 10-20 21-20h792c11 0 21 9 21 20v126c0 188-148 342-334 353z m292-458h-750v105c0 172 140 312 313 312h125c172 0 312-140 312-312v-105z m-375 375c-92 0-167-74-167-166s75-167 167-167 167 75 167 167-75 166-167 166z m0-291c-69 0-125 56-125 125s56 125 125 125 125-56 125-125-56-125-125-125z" horiz-adv-x="1000" />

<glyph glyph-name="off" unicode="&#xe81d;" d="M857 350q0-87-34-166t-91-137-137-92-166-34-167 34-136 92-92 137-34 166q0 102 45 191t126 151q24 18 54 14t46-28q18-23 14-53t-28-47q-54-41-84-101t-30-127q0-58 22-111t62-91 91-61 111-23 110 23 92 61 61 91 22 111q0 68-30 127t-84 101q-24 18-28 47t14 53q17 24 47 28t53-14q81-61 126-151t45-191z m-357 429v-358q0-29-21-50t-50-21-51 21-21 50v358q0 29 21 50t51 21 50-21 21-50z" horiz-adv-x="857.1" />

<glyph glyph-name="menu" unicode="&#xe81e;" d="M650 400q22 0 36-15t14-35-15-35-35-15l-600 0q-20 0-35 15t-15 35 14 35 36 15l600 0z m-600 100q-20 0-35 15t-15 35 14 35 36 15l600 0q22 0 36-15t14-35-15-35-35-15l-600 0z m600-300q22 0 36-15t14-35-15-35-35-15l-600 0q-20 0-35 15t-15 35 14 35 36 15l600 0z" horiz-adv-x="700" />

<glyph glyph-name="logout" unicode="&#xe81f;" d="M502 0l0 100 98 0 0-100q0-40-29-70t-71-30l-400 0q-40 0-70 30t-30 70l0 700q0 42 30 71t70 29l400 0q42 0 71-29t29-71l0-150-98 0 0 150-402 0 0-700 402 0z m398 326l-198-196 0 120-450 0 0 150 450 0 0 120z" horiz-adv-x="900" />

<glyph glyph-name="login" unicode="&#xe820;" d="M800 800q42 0 71-29t29-71l0-700q0-40-29-70t-71-30l-450 0q-40 0-69 30t-29 70l0 100 98 0 0-100 450 0 0 700-450 0 0-150-98 0 0 150q0 42 29 71t69 29l450 0z m-350-670l0 120-450 0 0 150 450 0 0 120 200-194z" horiz-adv-x="900" />

<glyph glyph-name="mail-1" unicode="&#xe821;" d="M834 688q44 0 74-30t30-74l0-468q0-43-30-74t-74-30l-730 0q-44 0-74 30t-30 74l0 468q0 44 30 74t74 30l730 0z m-421-454l-82 72-190-190 655 0-190 190-81-72q-24-20-56-20t-56 20z m-309-82l187 189-187 163 0-352z m542 189l188-188 0 351z m188 243l-730 0 0-11 342-300q9-7 23-7t22 7l343 300 0 11z" horiz-adv-x="938" />

<glyph glyph-name="menu-1" unicode="&#xe822;" d="M68 62q0-30 21-51t51-21h793q30 0 51 21t21 51-21 51-51 21h-793q-29 0-51-21t-21-51z m0 288q0-30 21-51t51-21h793q30 0 51 21t21 51-21 51-51 21h-793q-29 0-51-21t-21-51z m0 288q0-30 21-51t51-21h793q30 0 51 21t21 51-21 51-51 21h-793q-29 0-51-21t-21-51z" horiz-adv-x="1073.2" />

<glyph glyph-name="print" unicode="&#xe823;" d="M0-50l0 333 116 129 85 0 0-64-56 0-80-89 0-245 795 0 0 245-80 89-56 0 0 64 85 0 115-129 0-333-924 0z m201 319l0 330 151 151 372 0 0-481-523 0z m60 61l403 0 0 360-252 0 0-151-151 0 0-209z" horiz-adv-x="924" />

<glyph glyph-name="inbox-1" unicode="&#xe824;" d="M0 38l0 218q0 8 2 18l125 469q6 19 22 32t39 12l624 0q22 0 39-12t22-32l125-469q2-10 2-18l0-218q0-53-36-89t-89-37l-750 0q-53 0-89 37t-36 89z m63 0q0-26 18-45t44-18l750 0q25 0 44 18t18 45l0 218-125 469-624 0-125-469 0-218z m58 226l108 375q5 23 29 23l484 0q24 0 29-23l108-375q4-16-5-27t-24-12l-143 0-45-90q-17-35-57-35l-210 0q-40 0-57 35l-45 90-143 0q-15 0-24 12t-5 27z m45 24l127 0q39 0 57-36l45-89 210 0 45 89q18 36 57 36l127 0-92 343-484 0z" horiz-adv-x="1000" />

<glyph glyph-name="lock" unicode="&#xe825;" d="M0 131l0 219q0 39 27 66t67 28l0 125q0 117 82 199t199 82 199-82 82-199l0-125q39 0 67-28t27-66l0-219q0-117-82-199t-199-82l-188 0q-117 0-199 82t-82 199z m63 0q0-90 64-154t154-65l188 0q90 0 154 65t65 154l0 219q0 14-9 22t-23 9l-562 0q-14 0-23-9t-8-22l0-219z m93 313l63 0 0 125q0 64 46 110t110 46 110-46 46-110l0-125 63 0 0 125q0 90-65 154t-154 64-154-64-65-154l0-125z m94 0l250 0 0 125q0 52-36 89t-89 36-89-36-36-89l0-125z m63-250q0 25 18 44t44 18 44-18 19-44q0-28-22-84-14-41-41-41t-41 41q-21 56-21 84z" horiz-adv-x="750" />

<glyph glyph-name="calendar" unicode="&#xe826;" d="M0-66l0 738q0 35 24 60t60 24l135 0 0 63q0 13 9 22t22 9 22-9 9-22l0-63 188 0 0 63q0 13 9 22t22 9 22-9 9-22l0-63 188 0 0 63q0 13 9 22t22 9 22-9 9-22l0-63 135 0q35 0 60-24t24-60l0-738q0-35-24-60t-60-24l-832 0q-35 0-60 24t-24 60z m63 0q0-10 5-16t16-6l832 0q10 0 16 6t5 16l0 738q0 10-5 16t-16 6l-135 0 0-63q0-13-9-22t-22-9-22 9-9 22l0 63-188 0 0-63q0-13-9-22t-22-9-22 9-9 22l0 63-188 0 0-63q0-13-9-22t-22-9-22 9-9 22l0 63-135 0q-10 0-16-6t-5-16l0-738z m156 135l0 94 125 0 0-94-125 0z m0 156l0 94 125 0 0-94-125 0z m0 156l0 94 125 0 0-94-125 0z m219-312l0 94 125 0 0-94-125 0z m0 156l0 94 125 0 0-94-125 0z m0 156l0 94 125 0 0-94-125 0z m218-312l0 94 125 0 0-94-125 0z m0 156l0 94 125 0 0-94-125 0z m0 156l0 94 125 0 0-94-125 0z" horiz-adv-x="1000" />

<glyph glyph-name="login-1" unicode="&#xe827;" d="M827 792l-376-376c-37 19-79 30-124 30-149 0-269-120-269-269 0-149 120-269 269-269 149 0 269 120 269 269 0 45-11 87-30 124l126 126 58 0 0 58 19 19 58 0 0 58 19 19 58 0 0 58 38 38 0 115-115 0 0 0z m-519-692c0-32-26-58-58-58-32 0-58 26-58 58 0 32 26 58 58 58 32 0 58-26 58-58l0 0z" horiz-adv-x="1000" />

<glyph glyph-name="ok-circle" unicode="&#xe828;" d="M500 850q136 0 251-67t182-182 67-251-67-251-182-182-251-67-251 67-182 182-67 251 67 251 182 182 251 67z m-240-447l-54-53q71-71 129-133t81-90l22-26q8 13 22 36t57 85 83 119 95 119 99 104q-18 35-36 35-10-6-32-22t-113-97-211-201z" horiz-adv-x="1000" />

<glyph glyph-name="cancel-circle" unicode="&#xe829;" d="M1000 349q0-136-67-251t-182-182-251-67-251 67-182 182-67 251 67 251 182 182 251 67 251-67 182-182 67-251z m-339-232l71 71-161 161 161 161-71 71-161-161-161 161-71-71 161-161-161-161 71-71 161 161z" horiz-adv-x="1000" />

<glyph glyph-name="phone" unicode="&#xe82a;" d="M461 290q162 162 118 206l-8 8q-30 30-41 48t-4 54 49 88q20 24 37 39t35 16 30 1 29-13 24-18 26-25 21-22q48-48-6-194t-204-294q-150-150-295-205t-193-7q-2 2-23 22t-25 25-18 24-13 31 2 30 15 35 38 37q42 34 70 47t54 2 35-18 39-37q44-44 208 120z" horiz-adv-x="800" />

<glyph glyph-name="ccw" unicode="&#xe82b;" d="M532 736q170 0 289-120t119-290-119-290-289-120q-142 0-252 88l70 74q84-60 182-60 126 0 216 90t90 218-90 218-216 90q-124 0-214-87t-92-211l142 0-184-204-184 204 124 0q2 166 122 283t286 117z" horiz-adv-x="940" />

<glyph glyph-name="edit" unicode="&#xe82c;" d="M90 589l0-593 444 0 0 262 90 101 0-453-624 0 0 760 541 0-75-77-376 0z m749 180c35-34 32-88-3-124l-57-56 17 75-63 64-74-17 56 57c35 35 90 35 124 1z m-219-99c0 3 65 20 75 23l1 1 67-69c-4 0-23-75-23-75l-371-384-159-36-2 1 41 158z m-247-422l-45 46-35-6-23-22-10-40 46-45 39 9 23 23z" horiz-adv-x="864" />
</font>
</defs>
</svg>
